<?xml version="1.0" standalone="no"?><!DOCTYPE svg PUBLIC "-//W3C//DTD SVG 1.1//EN" "http://www.w3.org/Graphics/SVG/1.1/DTD/svg11.dtd"><svg t="1548569762684" class="icon" style="" viewBox="0 0 1024 1024" version="1.1" xmlns="http://www.w3.org/2000/svg" p-id="1940" xmlns:xlink="http://www.w3.org/1999/xlink" width="200" height="200"><defs><style type="text/css"></style></defs><path d="M512 750.933333c172.373333 0 307.2-110.353067 307.2-238.933333s-134.826667-238.933333-307.2-238.933333-307.2 110.353067-307.2 238.933333 134.826667 238.933333 307.2 238.933333z m0 68.266667c-207.36 0-375.466667-137.557333-375.466667-307.2s168.106667-307.2 375.466667-307.2 375.466667 137.557333 375.466667 307.2-168.106667 307.2-375.466667 307.2z m0-136.533333a170.666667 170.666667 0 1 1 0-341.333334 170.666667 170.666667 0 0 1 0 341.333334z m0-68.266667a102.4 102.4 0 1 0 0-204.8 102.4 102.4 0 0 0 0 204.8z" p-id="1941" fill="#8a8a8a"></path></svg>