<?xml version="1.0" standalone="no"?><!DOCTYPE svg PUBLIC "-//W3C//DTD SVG 1.1//EN" "http://www.w3.org/Graphics/SVG/1.1/DTD/svg11.dtd"><svg t="1548569780845" class="icon" style="" viewBox="0 0 1024 1024" version="1.1" xmlns="http://www.w3.org/2000/svg" p-id="2179" xmlns:xlink="http://www.w3.org/1999/xlink" width="200" height="200"><defs><style type="text/css"></style></defs><path d="M546.133333 544.938667V750.933333h-68.266666v-205.585066c-27.3408-1.365333-54.613333-4.642133-81.851734-9.762134l-44.373333 174.6944-66.1504-16.827733 44.2368-174.08c-20.821333-6.280533-41.608533-13.653333-62.293333-22.152533l-66.218667 132.437333-61.098667-30.5152 65.365334-130.6624a847.189333 847.189333 0 0 1-52.667734-29.764267l35.703467-58.231466c211.899733 129.877333 425.949867 129.877333 647.509333-0.341334l34.6112 58.88a924.330667 924.330667 0 0 1-52.497066 28.672l65.706666 131.413334-61.0304 30.549333-66.901333-133.768533c-20.5824 8.328533-41.1648 15.598933-61.713067 21.845333l44.6464 175.7184-66.184533 16.827733-44.680533-175.957333c-27.306667 5.393067-54.613333 8.942933-81.851734 10.615467z" p-id="2180" fill="#8a8a8a"></path></svg>