<?xml version="1.0" standalone="no"?><!DOCTYPE svg PUBLIC "-//W3C//DTD SVG 1.1//EN" "http://www.w3.org/Graphics/SVG/1.1/DTD/svg11.dtd"><svg t="1548935330399" class="icon" style="" viewBox="0 0 1024 1024" version="1.1" xmlns="http://www.w3.org/2000/svg" p-id="6551" xmlns:xlink="http://www.w3.org/1999/xlink" width="128" height="128"><defs><style type="text/css"></style></defs><path d="M512 0C229.257143 0 0 229.257143 0 512s229.257143 512 512 512 512-229.257143 512-512S794.742857 0 512 0z m190.857143 724.114286C656.457143 766.857143 593.142857 792 517.6 792c-109.371429 0-204-62.742857-250.057143-154.171429C248.571429 600 237.714286 557.257143 237.714286 512s10.857143-88 29.828571-125.828571c46.057143-91.542857 140.685714-154.285714 250.057143-154.285715 75.428571 0 138.742857 27.771429 187.314286 72.914286L624.685714 385.142857c-29.028571-27.771429-65.942857-41.828571-106.971428-41.828571-72.914286 0-134.628571 49.257143-156.685715 115.428571-5.6 16.8-8.8 34.742857-8.8 53.257143s3.2 36.457143 8.8 53.257143c22.057143 66.171429 83.771429 115.428571 156.571429 115.428571 37.714286 0 69.714286-9.942857 94.742857-26.742857 29.714286-19.885714 49.371429-49.485714 55.885714-84.571428H517.6v-108.342858h263.657143c3.314286 18.4 5.028571 37.485714 5.028571 57.257143 0 85.371429-30.514286 157.028571-83.428571 205.828572z" p-id="6552"></path></svg>