<?xml version="1.0" standalone="no"?><!DOCTYPE svg PUBLIC "-//W3C//DTD SVG 1.1//EN" "http://www.w3.org/Graphics/SVG/1.1/DTD/svg11.dtd"><svg t="1548936002724" class="icon" style="" viewBox="0 0 1024 1024" version="1.1" xmlns="http://www.w3.org/2000/svg" p-id="20337" xmlns:xlink="http://www.w3.org/1999/xlink" width="128" height="128"><defs><style type="text/css"></style></defs><path d="M482.181 482.181 183.987 482.181 183.987 183.987l298.193 0L482.18 482.181zM482.181 840.013 183.987 840.013 183.987 541.819l298.193 0L482.18 840.013zM422.542 422.542 422.542 243.626 243.626 243.626l0 178.916L422.542 422.542zM422.542 779.908l0-178.45L243.626 601.458l0 178.45L422.542 779.908zM362.903 362.903l-59.639 0 0-59.639 59.639 0L362.903 362.903zM362.903 720.735l-59.639 0 0-59.639 59.639 0L362.903 720.735zM840.013 482.181 541.819 482.181 541.819 183.987l298.193 0L840.012 482.181zM840.013 720.735 661.097 720.735l0-59.639-59.639 0 0 178.916-59.639 0L541.819 541.819l178.916 0 0 59.639 59.639 0 0-59.639 59.639 0L840.013 720.735zM780.374 422.542 780.374 243.626 601.458 243.626l0 178.916L780.374 422.542zM720.735 362.903l-59.639 0 0-59.639 59.639 0L720.735 362.903zM720.735 840.013l-59.639 0 0-59.639 59.639 0L720.735 840.013zM840.013 840.013l-59.639 0 0-59.639 59.639 0L840.013 840.013z" p-id="20338"></path></svg>